<svg width="15" height="17" viewBox="0 0 15 17" fill="none" xmlns="http://www.w3.org/2000/svg">
<path d="M0.421811 6.43485C0.00188425 6.83478 -0.0143257 7.49941 0.385604 7.91934C0.785535 8.33926 1.45016 8.35547 1.87009 7.95554L0.421811 6.43485ZM7.27095 1.36187L7.99509 0.60152C7.58957 0.215315 6.95233 0.215315 6.54681 0.60152L7.27095 1.36187ZM12.6718 7.95554C13.0917 8.35547 13.7564 8.33926 14.1563 7.91934C14.5562 7.49941 14.54 6.83478 14.1201 6.43485L12.6718 7.95554ZM6.22095 15.3619C6.22095 15.9418 6.69105 16.4119 7.27095 16.4119C7.85085 16.4119 8.32095 15.9418 8.32095 15.3619H6.22095ZM1.87009 7.95554L7.99509 2.12221L6.54681 0.60152L0.421811 6.43485L1.87009 7.95554ZM6.54681 2.12221L12.6718 7.95554L14.1201 6.43485L7.99509 0.60152L6.54681 2.12221ZM6.22095 1.36187L6.22095 15.3619H8.32095L8.32095 1.36187H6.22095Z" fill="#066523"/>
</svg>
