<svg width="6" height="11" viewBox="0 0 6 11" fill="none" xmlns="http://www.w3.org/2000/svg">
<path d="M4.17575 9.86577C4.41006 10.1001 4.78996 10.1001 5.02428 9.86577C5.25859 9.63145 5.25859 9.25155 5.02428 9.01724L4.17575 9.86577ZM0.600012 5.4415L0.175748 5.01724C-0.058567 5.25155 -0.058567 5.63145 0.175748 5.86577L0.600012 5.4415ZM5.02428 1.86577C5.25859 1.63145 5.25859 1.25155 5.02428 1.01724C4.78996 0.782925 4.41006 0.782925 4.17575 1.01724L5.02428 1.86577ZM5.02428 9.01724L1.02428 5.01724L0.175748 5.86577L4.17575 9.86577L5.02428 9.01724ZM1.02428 5.86577L5.02428 1.86577L4.17575 1.01724L0.175748 5.01724L1.02428 5.86577Z" fill="#646464"/>
</svg>
